<svg width="1157" height="768" viewBox="0 0 1157 768" fill="none" xmlns="http://www.w3.org/2000/svg">
<g filter="url(#filter0_f_634_823)">
<path d="M720.37 384.127C720.37 305.289 656.459 241.378 577.621 241.378C498.783 241.378 434.872 305.289 434.872 384.127C434.872 462.965 498.783 526.876 577.621 526.876C656.459 526.876 720.37 462.965 720.37 384.127Z" fill="#3C459A" fill-opacity="0.2"/>
</g>
<mask id="mask0_634_823" style="mask-type:alpha" maskUnits="userSpaceOnUse" x="0" y="39" width="1157" height="691">
<path d="M1156.45 39H0V729.254H1156.45V39Z" fill="url(#paint0_radial_634_823)"/>
</mask>
<g mask="url(#mask0_634_823)">
<path d="M243.938 50.4439H148.772V145.61H243.938V50.4439Z" stroke="white" stroke-opacity="0.25" stroke-width="1.20463"/>
<path d="M339.104 50.4439H243.938V145.61H339.104V50.4439Z" stroke="white" stroke-opacity="0.25" stroke-width="1.20463"/>
<path d="M434.27 50.4439H339.104V145.61H434.27V50.4439Z" stroke="white" stroke-opacity="0.25" stroke-width="1.20463"/>
<path d="M529.436 50.4439H434.27V145.61H529.436V50.4439Z" stroke="white" stroke-opacity="0.25" stroke-width="1.20463"/>
<path d="M624.601 50.4439H529.435V145.61H624.601V50.4439Z" stroke="white" stroke-opacity="0.25" stroke-width="1.20463"/>
<path d="M719.767 50.4439H624.601V145.61H719.767V50.4439Z" stroke="white" stroke-opacity="0.25" stroke-width="1.20463"/>
<path d="M814.933 50.4439H719.767V145.61H814.933V50.4439Z" fill="white" fill-opacity="0.1" stroke="white" stroke-opacity="0.25" stroke-width="1.20463"/>
<path d="M910.099 50.4439H814.933V145.61H910.099V50.4439Z" stroke="white" stroke-opacity="0.25" stroke-width="1.20463"/>
<path d="M1005.27 50.4439H910.099V145.61H1005.27V50.4439Z" stroke="white" stroke-opacity="0.25" stroke-width="1.20463"/>
<path d="M243.938 145.61H148.772V240.776H243.938V145.61Z" stroke="white" stroke-opacity="0.25" stroke-width="1.20463"/>
<path d="M339.104 145.61H243.938V240.776H339.104V145.61Z" stroke="white" stroke-opacity="0.25" stroke-width="1.20463"/>
<path d="M434.27 145.61H339.104V240.776H434.27V145.61Z" stroke="white" stroke-opacity="0.25" stroke-width="1.20463"/>
<path d="M529.436 145.61H434.27V240.776H529.436V145.61Z" stroke="white" stroke-opacity="0.25" stroke-width="1.20463"/>
<path d="M624.601 145.61H529.435V240.776H624.601V145.61Z" stroke="white" stroke-opacity="0.25" stroke-width="1.20463"/>
<path d="M719.767 145.61H624.601V240.776H719.767V145.61Z" stroke="white" stroke-opacity="0.25" stroke-width="1.20463"/>
<path d="M814.933 145.61H719.767V240.776H814.933V145.61Z" stroke="white" stroke-opacity="0.25" stroke-width="1.20463"/>
<path d="M910.099 145.61H814.933V240.776H910.099V145.61Z" stroke="white" stroke-opacity="0.25" stroke-width="1.20463"/>
<path d="M1005.27 145.61H910.099V240.776H1005.27V145.61Z" stroke="white" stroke-opacity="0.25" stroke-width="1.20463"/>
<path d="M243.938 240.776H148.772V335.942H243.938V240.776Z" stroke="white" stroke-opacity="0.25" stroke-width="1.20463"/>
<path d="M339.104 240.776H243.938V335.942H339.104V240.776Z" stroke="white" stroke-opacity="0.25" stroke-width="1.20463"/>
<path d="M434.27 240.776H339.104V335.942H434.27V240.776Z" stroke="white" stroke-opacity="0.25" stroke-width="1.20463"/>
<path d="M529.436 240.776H434.27V335.942H529.436V240.776Z" stroke="white" stroke-opacity="0.25" stroke-width="1.20463"/>
<path d="M624.601 240.776H529.435V335.942H624.601V240.776Z" fill="white" fill-opacity="0.1" stroke="white" stroke-opacity="0.25" stroke-width="1.20463"/>
<path d="M719.767 240.776H624.601V335.942H719.767V240.776Z" stroke="white" stroke-opacity="0.25" stroke-width="1.20463"/>
<path d="M814.933 240.776H719.767V335.942H814.933V240.776Z" fill="white" fill-opacity="0.1" stroke="white" stroke-opacity="0.25" stroke-width="1.20463"/>
<path d="M910.099 240.776H814.933V335.942H910.099V240.776Z" stroke="white" stroke-opacity="0.25" stroke-width="1.20463"/>
<path d="M1005.27 240.776H910.099V335.942H1005.27V240.776Z" stroke="white" stroke-opacity="0.25" stroke-width="1.20463"/>
<path d="M243.938 335.941H148.772V431.107H243.938V335.941Z" stroke="white" stroke-opacity="0.25" stroke-width="1.20463"/>
<path d="M339.104 335.941H243.938V431.107H339.104V335.941Z" stroke="white" stroke-opacity="0.25" stroke-width="1.20463"/>
<path d="M434.27 335.941H339.104V431.107H434.27V335.941Z" stroke="white" stroke-opacity="0.25" stroke-width="1.20463"/>
<path d="M529.436 335.941H434.27V431.107H529.436V335.941Z" stroke="white" stroke-opacity="0.25" stroke-width="1.20463"/>
<path d="M624.601 335.941H529.435V431.107H624.601V335.941Z" stroke="white" stroke-opacity="0.25" stroke-width="1.20463"/>
<path d="M719.767 335.941H624.601V431.107H719.767V335.941Z" stroke="white" stroke-opacity="0.25" stroke-width="1.20463"/>
<path d="M814.933 335.941H719.767V431.107H814.933V335.941Z" stroke="white" stroke-opacity="0.25" stroke-width="1.20463"/>
<path d="M910.099 335.941H814.933V431.107H910.099V335.941Z" stroke="white" stroke-opacity="0.25" stroke-width="1.20463"/>
<path d="M1005.27 335.941H910.099V431.107H1005.27V335.941Z" stroke="white" stroke-opacity="0.25" stroke-width="1.20463"/>
<path d="M243.938 431.107H148.772V526.273H243.938V431.107Z" stroke="white" stroke-opacity="0.25" stroke-width="1.20463"/>
<path d="M339.104 431.107H243.938V526.273H339.104V431.107Z" stroke="white" stroke-opacity="0.25" stroke-width="1.20463"/>
<path d="M434.27 431.107H339.104V526.273H434.27V431.107Z" stroke="white" stroke-opacity="0.25" stroke-width="1.20463"/>
<path d="M529.436 431.107H434.27V526.273H529.436V431.107Z" fill="white" fill-opacity="0.1" stroke="white" stroke-opacity="0.25" stroke-width="1.20463"/>
<path d="M624.601 431.107H529.435V526.273H624.601V431.107Z" stroke="white" stroke-opacity="0.25" stroke-width="1.20463"/>
<path d="M719.767 431.107H624.601V526.273H719.767V431.107Z" stroke="white" stroke-opacity="0.25" stroke-width="1.20463"/>
<path d="M814.933 431.107H719.767V526.273H814.933V431.107Z" stroke="white" stroke-opacity="0.25" stroke-width="1.20463"/>
<path d="M910.099 431.107H814.933V526.273H910.099V431.107Z" stroke="white" stroke-opacity="0.25" stroke-width="1.20463"/>
<path d="M1005.27 431.107H910.099V526.273H1005.27V431.107Z" stroke="white" stroke-opacity="0.25" stroke-width="1.20463"/>
<path d="M243.938 526.273H148.772V621.439H243.938V526.273Z" stroke="white" stroke-opacity="0.25" stroke-width="1.20463"/>
<path d="M339.104 526.273H243.938V621.439H339.104V526.273Z" stroke="white" stroke-opacity="0.25" stroke-width="1.20463"/>
<path d="M434.27 526.273H339.104V621.439H434.27V526.273Z" stroke="white" stroke-opacity="0.25" stroke-width="1.20463"/>
<path d="M529.436 526.273H434.27V621.439H529.436V526.273Z" stroke="white" stroke-opacity="0.25" stroke-width="1.20463"/>
<path d="M624.601 526.273H529.435V621.439H624.601V526.273Z" stroke="white" stroke-opacity="0.25" stroke-width="1.20463"/>
<path d="M719.767 526.273H624.601V621.439H719.767V526.273Z" stroke="white" stroke-opacity="0.25" stroke-width="1.20463"/>
<path d="M814.933 526.273H719.767V621.439H814.933V526.273Z" stroke="white" stroke-opacity="0.25" stroke-width="1.20463"/>
<path d="M910.099 526.273H814.933V621.439H910.099V526.273Z" stroke="white" stroke-opacity="0.25" stroke-width="1.20463"/>
<path d="M1005.27 526.273H910.099V621.439H1005.27V526.273Z" stroke="white" stroke-opacity="0.25" stroke-width="1.20463"/>
<path d="M243.938 621.439H148.772V716.605H243.938V621.439Z" stroke="white" stroke-opacity="0.25" stroke-width="1.20463"/>
<path d="M339.104 621.439H243.938V716.605H339.104V621.439Z" stroke="white" stroke-opacity="0.25" stroke-width="1.20463"/>
<path d="M434.27 621.439H339.104V716.605H434.27V621.439Z" stroke="white" stroke-opacity="0.25" stroke-width="1.20463"/>
<path d="M529.436 621.439H434.27V716.605H529.436V621.439Z" stroke="white" stroke-opacity="0.25" stroke-width="1.20463"/>
<path d="M624.601 621.439H529.435V716.605H624.601V621.439Z" stroke="white" stroke-opacity="0.25" stroke-width="1.20463"/>
<path d="M719.767 621.439H624.601V716.605H719.767V621.439Z" stroke="white" stroke-opacity="0.25" stroke-width="1.20463"/>
<path d="M814.933 621.439H719.767V716.605H814.933V621.439Z" stroke="white" stroke-opacity="0.25" stroke-width="1.20463"/>
<path d="M910.099 621.439H814.933V716.605H910.099V621.439Z" stroke="white" stroke-opacity="0.25" stroke-width="1.20463"/>
<path d="M1005.27 621.439H910.099V716.605H1005.27V621.439Z" stroke="white" stroke-opacity="0.25" stroke-width="1.20463"/>
</g>
<defs>
<filter id="filter0_f_634_823" x="193.946" y="0.451996" width="767.35" height="767.35" filterUnits="userSpaceOnUse" color-interpolation-filters="sRGB">
<feFlood flood-opacity="0" result="BackgroundImageFix"/>
<feBlend mode="normal" in="SourceGraphic" in2="BackgroundImageFix" result="shape"/>
<feGaussianBlur stdDeviation="120.463" result="effect1_foregroundBlur_634_823"/>
</filter>
<radialGradient id="paint0_radial_634_823" cx="0" cy="0" r="1" gradientUnits="userSpaceOnUse" gradientTransform="translate(578.223 384.127) rotate(90) scale(425.464 712.819)">
<stop stop-color="#D9D9D9" stop-opacity="0.2"/>
<stop offset="0.802083" stop-color="#D9D9D9" stop-opacity="0"/>
</radialGradient>
</defs>
</svg>
