<svg width="830" height="290" viewBox="0 0 830 290" fill="none" xmlns="http://www.w3.org/2000/svg">
<g clip-path="url(#clip0_634_813)">
<path d="M345.581 133.276C345.581 128.911 342.039 125.367 337.674 125.367C333.308 125.367 329.766 128.911 329.766 133.276" stroke="white" stroke-width="15.9116" stroke-miterlimit="10"/>
<path d="M90.9305 224.976C90.9305 234.195 83.4605 241.677 74.2325 241.677C65.0055 241.677 57.5153 233.016 57.5153 223.786L57.5354 224.976L57.5558 88.2618C57.5558 53.8731 85.4225 26 119.803 26C154.184 26 182.049 53.8731 182.049 88.2618C182.049 122.652 154.184 150.525 119.803 150.525L40.7974 150.433C21.5796 150.433 6 134.85 6 115.627" stroke="white" stroke-width="25.9429" stroke-miterlimit="10"/>
<path d="M120.529 154.844V250.57C120.529 258.032 126.576 264.08 134.035 264.08H154.107C161.566 264.08 167.613 258.032 167.613 250.57V219.739C167.613 190.575 191.252 166.93 220.409 166.93C249.566 166.93 273.204 190.575 273.204 219.739V250.57C273.204 258.032 279.251 264.08 286.711 264.08H306.782C314.242 264.08 320.288 258.032 320.288 250.57V138.712C320.288 83.5342 275.572 38.7969 220.398 38.7969C165.133 38.7969 120.376 83.6767 120.509 138.956L120.549 154.844H120.529Z" stroke="white" stroke-width="25.9429" stroke-miterlimit="10"/>
<path d="M362.531 264.085V176.82C362.531 135.034 387.145 115 423.493 115C459.554 115 484.168 135.034 484.168 177.106V178.537H457.264V176.82C457.264 150.776 443.524 140.186 423.493 140.186C403.171 140.186 389.719 150.776 389.719 176.82V264.085H362.531Z" fill="white"/>
<path d="M557.784 264.085C524.013 264.085 501.118 245.196 501.118 206.845L501.163 115L528.306 115.001V153.415H604.415V178.314H528.306V206.845C528.306 229.169 540.039 238.899 557.784 238.899C575.529 238.899 587.549 229.455 587.549 206.845V203.697H614.454V206.845C614.454 245.196 591.555 264.085 557.784 264.085Z" fill="white"/>
<path d="M631.43 264.09V153.282H658.618V264.09H631.43Z" fill="white"/>
<path d="M644.978 142.081C652.477 142.081 658.557 136.002 658.557 128.502C658.557 121.002 652.477 114.922 644.978 114.922C637.478 114.922 631.398 121.002 631.398 128.502C631.398 136.002 637.478 142.081 644.978 142.081Z" fill="white"/>
<path d="M749.761 264.084C706.257 264.084 675.579 233.407 675.579 191.575C675.579 149.742 706.368 115 749.876 115C793.38 115 823.387 149.742 823.387 191.575V201.335H703.469C707.374 225.877 725.78 239.543 749.761 239.543C767.61 239.543 780.16 233.965 788.25 221.973H817.531C806.933 247.63 781.834 264.084 749.761 264.084ZM704.306 177.63H795.5C790.201 155.598 772.024 141.808 749.713 141.808C726.842 141.808 709.605 155.877 704.306 177.63Z" fill="white"/>
</g>
<defs>
<clipPath id="clip0_634_813">
<rect width="830" height="290" fill="white"/>
</clipPath>
</defs>
</svg>
